<svg preserveAspectRatio="none" overflow="visible" style="display: block;" width="23.8828" height="38" viewBox="0 0 23.8828 38" fill="none" xmlns="http://www.w3.org/2000/svg">
<g id="IconThunder" clip-path="url(#clip0_0_10)">
<path id="Vector" d="M1.74873 21.5276H10.6638C10.759 21.5276 10.853 21.5488 10.9389 21.5899C11.0248 21.6309 11.1005 21.6905 11.1604 21.7645C11.2202 21.8386 11.2628 21.9251 11.2849 22.0177C11.3071 22.1103 11.3083 22.2067 11.2884 22.2997L8.20539 36.6962C8.20053 36.7105 8.19861 36.7257 8.19971 36.7409C8.20082 36.756 8.20496 36.7708 8.21186 36.7842C8.21877 36.7978 8.22831 36.8097 8.23991 36.8195C8.25153 36.8293 8.26498 36.8367 8.27947 36.8411C8.29231 36.8491 8.30665 36.8545 8.32164 36.8567C8.33661 36.8591 8.35188 36.8583 8.36654 36.8545C8.38119 36.8507 8.39491 36.8438 8.40684 36.8345C8.41879 36.8253 8.4287 36.8135 8.43596 36.8003L22.6669 17.4756C22.74 17.3769 22.7843 17.2598 22.7948 17.1375C22.8053 17.015 22.7815 16.8921 22.7262 16.7825C22.6709 16.6727 22.5862 16.5806 22.4815 16.5162C22.3769 16.4518 22.2565 16.4178 22.1336 16.4179H13.2186C13.1233 16.4179 13.0293 16.3967 12.9433 16.3556C12.8572 16.3146 12.7815 16.2549 12.7216 16.1807C12.6618 16.1066 12.6192 16.0201 12.5971 15.9274C12.5749 15.8348 12.5739 15.7383 12.5939 15.6451L15.6769 1.24874C15.6818 1.23437 15.6837 1.21917 15.6826 1.20404C15.6816 1.1889 15.6773 1.17414 15.6705 1.16063C15.6635 1.14712 15.654 1.13512 15.6424 1.12535C15.6307 1.11559 15.6174 1.10824 15.6028 1.10376C15.5829 1.0941 15.5612 1.08887 15.539 1.08843C15.52 1.08937 15.5016 1.09499 15.4853 1.10479C15.469 1.11461 15.4554 1.1283 15.4458 1.14463L1.21542 20.4705C1.14246 20.5692 1.09833 20.6862 1.08796 20.8086C1.07758 20.9308 1.10137 21.0536 1.15666 21.1632C1.21194 21.2728 1.29656 21.3649 1.40111 21.4292C1.50565 21.4936 1.626 21.5276 1.74873 21.5276Z" fill="#00D1F3"/>
<path id="Vector_2" d="M15.5501 0.54564C15.623 0.54712 15.6936 0.564319 15.7621 0.588046L15.7632 0.584865C15.7816 0.59056 15.7985 0.600926 15.8162 0.608187C15.8237 0.611468 15.8322 0.612065 15.8395 0.615609L15.8384 0.61773C15.8533 0.624466 15.8697 0.627931 15.884 0.635751L15.9921 0.709961L16.0833 0.803254L16.1533 0.913507L16.201 1.03542L16.2243 1.16476L16.2201 1.29516C16.2173 1.31757 16.2094 1.33888 16.2043 1.36088L16.2074 1.36194L13.1245 15.7587C13.1215 15.7725 13.1223 15.7872 13.1256 15.801C13.1289 15.8148 13.1348 15.8281 13.1436 15.8392C13.1526 15.8503 13.1646 15.8595 13.1776 15.8657C13.1904 15.8718 13.2047 15.8753 13.2189 15.8753H22.1336L22.2989 15.8869C22.4637 15.9097 22.6227 15.9657 22.7654 16.0533C22.9556 16.1703 23.1101 16.3385 23.2107 16.5378C23.3112 16.7372 23.3548 16.961 23.3358 17.1835C23.3168 17.4055 23.2349 17.617 23.1025 17.7962L23.1036 17.7973L8.87336 37.1225L8.87124 37.1204C8.83416 37.1733 8.79197 37.2226 8.74084 37.2625C8.67063 37.3172 8.5896 37.3576 8.50337 37.3802C8.41728 37.4026 8.32727 37.4064 8.23939 37.3929C8.17671 37.3832 8.11739 37.3616 8.06023 37.3346C8.03974 37.3259 8.01824 37.3197 7.99874 37.3091L7.89061 37.235C7.82353 37.1785 7.76827 37.1094 7.72841 37.0314C7.68855 36.9534 7.66486 36.8675 7.65844 36.7801C7.65361 36.7137 7.66128 36.6475 7.67646 36.583H7.67435L10.7572 22.1863V22.1438C10.7539 22.1299 10.7471 22.1168 10.7381 22.1056C10.7293 22.0948 10.7179 22.0863 10.7053 22.0802C10.6924 22.074 10.6782 22.0707 10.6639 22.0707H1.74923C1.52599 22.0708 1.30645 22.0085 1.11633 21.8916C0.926409 21.7746 0.77265 21.6072 0.672129 21.4081C0.571571 21.2088 0.528161 20.9849 0.547032 20.7624C0.565932 20.5401 0.646541 20.3271 0.779202 20.1476L15.0084 0.822336C15.0607 0.748502 15.1278 0.686889 15.2055 0.639992L15.2766 0.602888C15.3507 0.569802 15.4305 0.550758 15.512 0.5467L15.531 0.54564H15.5501Z" stroke="#00D1F3" stroke-opacity="0.3" stroke-width="1.08558"/>
</g>
<defs>
<clipPath id="clip0_0_10">
<rect width="23.8828" height="38" fill="white"/>
</clipPath>
</defs>
</svg>
